# xmcd
#
# Track frame offsets:
#	150
#	23459
#	51563
#	74173
#	96149
#	116096
#	137713
#	160695
#	179739
#	203456
#
# Disc length: 3027 seconds
# Revision: 0
# Processed by: cddbd v1.5.2PL0 Copyright (c) Steve Scherf et al.
# Submitted via: dBpowerAMP V12.0
#
DISCID=8e0bd10a
DTITLE=Various Artist - Bai tinh ca cua em
DYEAR=2003
DGENRE=Pop
TTITLE0=Quang Dung - Bai tinh ca cua em
TTITLE1=Quang Dung - Chut huong cho doi
TTITLE2=Quang Dung - Van con mua xuan cho em
TTITLE3=Quang Dung - Con trong noi nho
TTITLE4=Quang Dung - Lang nhin ta thoi
TTITLE5=Quang Dung and Dieu Huong - Hat cho doi hat cho nguoi
TTITLE6=Quang Dung - Tu gia em
TTITLE7=Quang Dung - Mua con roi mai vi ai
TTITLE8=Quang Dung - Sao danh phu toi
TTITLE9=Quang Dung - Toi muon hoi tai sao
EXTD=
EXTT0=
EXTT1=
EXTT2=
EXTT3=
EXTT4=
EXTT5=
EXTT6=
EXTT7=
EXTT8=
EXTT9=
PLAYORDER=
